<svg width="30" height="30" viewBox="0 0 30 30" fill="none" xmlns="http://www.w3.org/2000/svg">
<path fill-rule="evenodd" clip-rule="evenodd" d="M17.6216 10.625C17.6216 11.3125 17.0591 11.875 16.3716 11.875C15.6841 11.875 15.1216 11.3125 15.1216 10.625V8.125H12.6216C11.9341 8.125 11.3716 7.5625 11.3716 6.875C11.3716 6.1875 11.9341 5.625 12.6216 5.625H15.1216V3.125C15.1216 2.4375 15.6841 1.875 16.3716 1.875C17.0591 1.875 17.6216 2.4375 17.6216 3.125V5.625H20.1216C20.8091 5.625 21.3716 6.1875 21.3716 6.875C21.3716 7.5625 20.8091 8.125 20.1216 8.125H17.6216V10.625ZM7.63402 25.625C7.63402 24.25 8.74652 23.125 10.1215 23.125C11.4965 23.125 12.6215 24.25 12.6215 25.625C12.6215 27 11.4965 28.125 10.1215 28.125C8.74652 28.125 7.63402 27 7.63402 25.625ZM22.6215 23.125C21.2465 23.125 20.134 24.25 20.134 25.625C20.134 27 21.2465 28.125 22.6215 28.125C23.9965 28.125 25.1215 27 25.1215 25.625C25.1215 24.25 23.9965 23.125 22.6215 23.125ZM20.8091 16.875H11.4966L10.1216 19.375H23.8716C24.5591 19.375 25.1216 19.9375 25.1216 20.625C25.1216 21.3125 24.5591 21.875 23.8716 21.875H10.1216C8.22158 21.875 7.02158 19.8375 7.93408 18.1625L9.62158 15.1125L5.12158 5.625H3.87158C3.18408 5.625 2.62158 5.0625 2.62158 4.375C2.62158 3.6875 3.18408 3.125 3.87158 3.125H5.92158C6.39658 3.125 6.84658 3.4 7.04658 3.8375L12.0341 14.375H20.8091L25.0466 6.7125C25.3716 6.1125 26.1341 5.9 26.7341 6.225C27.3341 6.5625 27.5591 7.325 27.2216 7.925L22.9966 15.5875C22.5716 16.3625 21.7466 16.875 20.8091 16.875Z" fill="#FF3852"/>
</svg>
