<svg width="100" height="80" viewBox="0 0 100 80" fill="none" xmlns="http://www.w3.org/2000/svg">
<path d="M0 4.16663V10.4166H59.375V57.2916H40.1375C38.7438 51.9198 33.9125 47.9166 28.125 47.9166C22.3375 47.9166 17.5063 51.9198 16.1125 57.2916H12.5V41.6666H6.25V63.5416H16.1125C17.5063 68.9135 22.3375 72.9166 28.125 72.9166C33.9125 72.9166 38.7438 68.9135 40.1375 63.5416H66.1125C67.5063 68.9135 72.3375 72.9166 78.125 72.9166C83.9125 72.9166 88.7438 68.9135 90.1375 63.5416H100V38.0541L99.8031 37.5635L93.5531 18.8135L92.875 16.6666H65.625V4.16663H0ZM3.125 16.6666V22.9166H31.25V16.6666H3.125ZM65.625 22.9166H88.3781L93.75 38.9323V57.2916H90.1375C88.7438 51.9198 83.9125 47.9166 78.125 47.9166C72.3375 47.9166 67.5063 51.9198 66.1125 57.2916H65.625V22.9166ZM6.25 29.1666V35.4166H25V29.1666H6.25ZM28.125 54.1666C31.6156 54.1666 34.375 56.926 34.375 60.4166C34.375 63.9073 31.6156 66.6666 28.125 66.6666C24.6344 66.6666 21.875 63.9073 21.875 60.4166C21.875 56.926 24.6344 54.1666 28.125 54.1666ZM78.125 54.1666C81.6156 54.1666 84.375 56.926 84.375 60.4166C84.375 63.9073 81.6156 66.6666 78.125 66.6666C74.6344 66.6666 71.875 63.9073 71.875 60.4166C71.875 56.926 74.6344 54.1666 78.125 54.1666Z" fill="#F42843"/>
</svg>
