<svg width="60" height="60" viewBox="0 0 60 60" fill="none" xmlns="http://www.w3.org/2000/svg">
<path d="M37.8127 29.9999C37.8127 32.0719 36.9896 34.059 35.5245 35.5241C34.0594 36.9893 32.0722 37.8124 30.0002 37.8124C27.9282 37.8124 25.9411 36.9893 24.476 35.5241C23.0108 34.059 22.1877 32.0719 22.1877 29.9999C22.1877 29.5546 22.2346 29.1197 22.3153 28.6978H19.5836V39.1066C19.5836 39.8306 20.1695 40.4165 20.8935 40.4165H39.1096C39.4566 40.4159 39.7891 40.2775 40.0342 40.032C40.2793 39.7864 40.4169 39.4536 40.4169 39.1066V28.6978H37.6851C37.7659 29.1197 37.8127 29.5546 37.8127 29.9999V29.9999ZM30.0002 35.2082C30.6844 35.208 31.3618 35.0731 31.9938 34.8112C32.6258 34.5492 33.2 34.1653 33.6836 33.6814C34.1673 33.1975 34.5509 32.6231 34.8125 31.991C35.0742 31.3589 35.2087 30.6814 35.2086 29.9973C35.2084 29.3131 35.0735 28.6357 34.8115 28.0037C34.5495 27.3717 34.1657 26.7975 33.6818 26.3139C33.1979 25.8302 32.6235 25.4467 31.9914 25.185C31.3592 24.9234 30.6818 24.7888 29.9976 24.7889C28.616 24.7893 27.291 25.3385 26.3143 26.3157C25.3375 27.293 24.789 28.6182 24.7893 29.9999C24.7896 31.3816 25.3389 32.7065 26.3161 33.6833C27.2933 34.66 28.6186 35.2086 30.0002 35.2082V35.2082ZM36.2502 24.5311H39.3726C39.5801 24.5311 39.7791 24.4489 39.926 24.3025C40.0729 24.156 40.1558 23.9573 40.1565 23.7499V20.6275C40.1565 20.4196 40.0739 20.2202 39.9269 20.0732C39.7799 19.9262 39.5805 19.8436 39.3726 19.8436H36.2502C36.0423 19.8436 35.843 19.9262 35.696 20.0732C35.549 20.2202 35.4664 20.4196 35.4664 20.6275V23.7499C35.469 24.1796 35.8206 24.5311 36.2502 24.5311V24.5311ZM30.0002 4.99988C23.3698 4.99988 17.011 7.6338 12.3226 12.3222C7.63416 17.0106 5.00024 23.3695 5.00024 29.9999C5.00024 36.6303 7.63416 42.9891 12.3226 47.6775C17.011 52.366 23.3698 54.9999 30.0002 54.9999C33.2833 54.9999 36.5342 54.3532 39.5673 53.0969C42.6005 51.8405 45.3564 49.999 47.6779 47.6775C49.9994 45.3561 51.8409 42.6001 53.0972 39.567C54.3536 36.5338 55.0002 33.2829 55.0002 29.9999C55.0002 26.7168 54.3536 23.4659 53.0972 20.4328C51.8409 17.3997 49.9994 14.6437 47.6779 12.3222C45.3564 10.0007 42.6005 8.15926 39.5673 6.90289C36.5342 5.64652 33.2833 4.99988 30.0002 4.99988V4.99988ZM43.0211 40.1275C43.0211 41.7186 41.719 43.0207 40.1278 43.0207H19.8726C18.2815 43.0207 16.9794 41.7186 16.9794 40.1275V19.8723C16.9794 18.2811 18.2815 16.979 19.8726 16.979H40.1278C41.719 16.979 43.0211 18.2811 43.0211 19.8723V40.1275V40.1275Z" fill="#FF3852"/>
</svg>
