<?xml version="1.0" standalone="no"?>
<!DOCTYPE svg PUBLIC "-//W3C//DTD SVG 20010904//EN"
 "http://www.w3.org/TR/2001/REC-SVG-20010904/DTD/svg10.dtd">
<svg version="1.0" xmlns="http://www.w3.org/2000/svg"
 width="103.000000pt" height="113.000000pt" viewBox="0 0 103.000000 113.000000"
 preserveAspectRatio="xMidYMid meet">
<metadata>
Created by potrace 1.15, written by Peter Selinger 2001-2017
</metadata>
<g transform="translate(0.000000,113.000000) scale(0.100000,-0.100000)"
fill="#000000" stroke="none">
<path d="M0 565 l0 -565 515 0 515 0 0 565 0 565 -515 0 -515 0 0 -565z m420
225 c0 -29 -2 -30 -44 -30 -25 0 -47 -4 -50 -8 -3 -5 33 -46 79 -92 l85 -85
80 80 c44 44 80 85 80 92 0 9 -15 13 -45 13 -43 0 -45 1 -45 30 l0 30 110 0
110 0 0 -110 0 -110 -33 0 c-31 0 -32 2 -31 37 4 71 -4 69 -102 -28 l-94 -94
0 -137 0 -138 -30 0 -30 0 0 136 0 137 -92 93 c-50 52 -95 94 -100 94 -4 0 -8
-22 -8 -50 0 -50 0 -50 -32 -50 l-33 0 3 110 3 110 110 0 109 0 0 -30z"/>
</g>
</svg>
