<?xml version="1.0" standalone="no"?>
<!DOCTYPE svg PUBLIC "-//W3C//DTD SVG 20010904//EN"
 "http://www.w3.org/TR/2001/REC-SVG-20010904/DTD/svg10.dtd">
<svg version="1.0" xmlns="http://www.w3.org/2000/svg"
 width="398.000000pt" height="81.000000pt" viewBox="0 0 398.000000 81.000000"
 preserveAspectRatio="xMidYMid meet">
<metadata>
Created by potrace 1.15, written by Peter Selinger 2001-2017
</metadata>
<g transform="translate(0.000000,81.000000) scale(0.100000,-0.100000)"
fill="#000000" stroke="none">
<path d="M0 405 l0 -405 1990 0 1990 0 0 405 0 405 -1990 0 -1990 0 0 -405z
m309 198 c29 -183 32 -195 39 -188 4 3 21 48 37 98 l30 92 50 0 50 0 34 -98
c18 -54 36 -95 39 -92 3 3 17 76 31 163 l27 157 72 3 c70 3 72 2 72 -21 0 -34
-88 -558 -94 -565 -11 -10 -131 -1 -138 11 -4 6 -23 59 -44 117 -20 58 -40
109 -44 113 -4 5 -20 -27 -35 -70 -16 -43 -36 -98 -45 -123 l-18 -45 -62 -5
c-37 -3 -65 -1 -70 5 -8 10 -100 533 -100 569 0 13 13 16 73 16 l74 0 22 -137z
m1146 77 l0 -55 -164 -5 c-141 -4 -162 -7 -148 -19 10 -7 17 -28 17 -45 0 -51
13 -56 132 -56 l108 0 0 -55 c0 -30 -3 -55 -7 -55 -5 0 -63 -1 -130 -2 -113
-1 -140 -6 -113 -23 6 -3 10 -21 10 -38 0 -57 5 -59 156 -61 l139 -1 3 -63 3
-62 -223 2 -223 3 -3 273 -2 273 25 25 25 24 197 -2 198 -3 0 -55z m825 38
c102 -52 123 -179 40 -245 -13 -11 -13 -15 6 -30 72 -60 76 -183 7 -245 -45
-41 -93 -51 -255 -56 -87 -2 -169 -2 -183 2 l-25 6 0 269 c0 256 1 269 21 295
l20 26 163 0 c148 0 166 -2 206 -22z m480 -188 c3 -143 9 -212 18 -228 27 -46
105 -56 149 -18 l28 24 5 197 c5 193 5 197 29 216 19 15 37 19 75 17 l51 -3 0
-225 0 -225 -27 -47 c-22 -36 -41 -53 -84 -74 -48 -24 -68 -27 -142 -27 -131
2 -204 42 -239 131 -15 40 -18 77 -18 240 0 193 0 194 24 213 19 15 37 19 75
17 l51 -3 5 -205z m780 165 l0 -35 -52 0 -53 0 86 -86 86 -86 81 83 c45 46 82
85 82 86 0 2 -22 3 -50 3 l-50 0 0 35 0 35 115 0 115 0 0 -115 0 -115 -35 0
-35 0 0 50 c0 28 -2 50 -5 50 -2 0 -45 -41 -95 -91 l-90 -91 0 -139 0 -139
-35 0 -35 0 0 143 0 142 -88 88 c-48 48 -91 87 -95 87 -4 0 -7 -22 -7 -50 l0
-50 -35 0 -35 0 0 115 0 115 115 0 115 0 0 -35z"/>
<path d="M2013 612 c10 -10 17 -34 17 -53 0 -47 15 -59 73 -59 74 0 107 22
107 72 0 44 -32 58 -129 58 -81 0 -83 -1 -68 -18z"/>
<path d="M2014 379 c9 -13 16 -43 16 -66 0 -54 22 -68 98 -60 65 7 92 28 92
72 0 54 -28 69 -132 74 l-91 3 17 -23z"/>
</g>
</svg>
