<svg width="80" height="80" viewBox="0 0 80 80" fill="none" xmlns="http://www.w3.org/2000/svg">
<path d="M39.9998 6.66663C21.6198 6.66663 6.6665 21.62 6.6665 40C6.6665 58.38 21.6198 73.3333 39.9998 73.3333C58.3798 73.3333 73.3332 58.38 73.3332 40C73.3332 21.62 58.3798 6.66663 39.9998 6.66663ZM39.9998 66.6666C25.2965 66.6666 13.3332 54.7033 13.3332 40C13.3332 25.2966 25.2965 13.3333 39.9998 13.3333C54.7032 13.3333 66.6665 25.2966 66.6665 40C66.6665 54.7033 54.7032 66.6666 39.9998 66.6666Z" fill="#F42843"/>
<path d="M39.9998 36.6667C33.3332 36.6667 33.3332 34.58 33.3332 33.3334C33.3332 31.72 35.6698 30 39.9998 30C43.9498 30 44.6198 32.1267 44.6665 33.3934L47.9998 33.3334H51.3332C51.3332 29.9134 49.1132 25.1034 43.3332 23.7367V20.04H36.6665V23.6167C30.0965 24.72 26.6665 29.04 26.6665 33.3334C26.6665 37.0667 28.3998 43.3334 39.9998 43.3334C46.6665 43.3334 46.6665 45.5867 46.6665 46.6667C46.6665 48.05 44.5998 50 39.9998 50C33.8632 50 33.3698 47.1434 33.3332 46.6667H26.6665C26.6665 49.7267 28.8698 55.1767 36.6665 56.4V60H43.3332V56.3834C49.9032 55.28 53.3332 50.96 53.3332 46.6667C53.3332 42.9334 51.5998 36.6667 39.9998 36.6667Z" fill="#F42843"/>
</svg>
