<svg width="80" height="80" viewBox="0 0 80 80" fill="none" xmlns="http://www.w3.org/2000/svg">
<path d="M70.0002 26.6667C71.7683 26.6667 73.464 27.369 74.7142 28.6193C75.9644 29.8695 76.6668 31.5652 76.6668 33.3333V46.6667C76.6668 48.4348 75.9644 50.1305 74.7142 51.3807C73.464 52.6309 71.7683 53.3333 70.0002 53.3333H66.4602C65.6475 59.7777 62.511 65.7039 57.6393 70C52.7676 74.296 46.4955 76.6666 40.0002 76.6667V70C45.3045 70 50.3916 67.8929 54.1423 64.1421C57.893 60.3914 60.0002 55.3043 60.0002 50V30C60.0002 24.6957 57.893 19.6086 54.1423 15.8579C50.3916 12.1071 45.3045 9.99999 40.0002 9.99999C34.6958 9.99999 29.6088 12.1071 25.858 15.8579C22.1073 19.6086 20.0002 24.6957 20.0002 30V53.3333H10.0002C8.23205 53.3333 6.53636 52.6309 5.28612 51.3807C4.03588 50.1305 3.3335 48.4348 3.3335 46.6667V33.3333C3.3335 31.5652 4.03588 29.8695 5.28612 28.6193C6.53636 27.369 8.23205 26.6667 10.0002 26.6667H13.5402C14.3536 20.223 17.4904 14.2976 22.3621 10.0022C27.2337 5.70692 33.5053 3.33691 40.0002 3.33691C46.495 3.33691 52.7666 5.70692 57.6382 10.0022C62.5099 14.2976 65.6467 20.223 66.4602 26.6667H70.0002ZM25.8668 52.6167L29.4002 46.9633C32.5771 48.9534 36.2514 50.006 40.0002 50C43.7489 50.006 47.4232 48.9534 50.6002 46.9633L54.1335 52.6167C49.8977 55.2705 44.9986 56.6743 40.0002 56.6667C35.0017 56.6743 30.1026 55.2705 25.8668 52.6167Z" fill="#F42843"/>
</svg>
