<svg width="60" height="60" viewBox="0 0 60 60" fill="none" xmlns="http://www.w3.org/2000/svg">
<path d="M30 5C16.1942 5 5 16.1942 5 30C5 43.8058 16.1942 55 30 55C43.8058 55 55 43.8058 55 30C55 16.1942 43.8058 5 30 5ZM42.0145 23.8449C42.0312 24.1071 42.0312 24.3806 42.0312 24.6484C42.0312 32.8404 35.7924 42.2768 24.3917 42.2768C20.8761 42.2768 17.6172 41.2556 14.8717 39.4978C15.3739 39.5536 15.8538 39.5759 16.3672 39.5759C19.269 39.5759 21.9364 38.5938 24.0625 36.9308C21.3393 36.875 19.0513 35.0893 18.2701 32.6339C19.2243 32.7734 20.0837 32.7734 21.0658 32.5223C19.6637 32.2374 18.4033 31.4759 17.499 30.3671C16.5946 29.2583 16.102 27.8706 16.1049 26.4397V26.3616C16.9252 26.8248 17.8906 27.1094 18.9007 27.1484C18.0516 26.5826 17.3552 25.8159 16.8734 24.9165C16.3915 24.017 16.1391 23.0126 16.1384 21.9922C16.1384 20.8371 16.4397 19.7824 16.981 18.8672C18.5374 20.7831 20.4795 22.3501 22.6812 23.4663C24.8828 24.5825 27.2947 25.223 29.76 25.346C28.8839 21.1328 32.0313 17.7232 35.8147 17.7232C37.6004 17.7232 39.2076 18.471 40.3404 19.6763C41.7411 19.4141 43.0804 18.8895 44.2746 18.1864C43.8114 19.6205 42.8404 20.8315 41.5513 21.596C42.8013 21.4621 44.0067 21.1161 45.1228 20.6306C44.2801 21.8694 43.2254 22.9688 42.0145 23.8449V23.8449Z" fill="#FF3852"/>
</svg>
